{"title":"In the Blood (2014) Dual Audio BDRip 720p [CHD]","uid":10481300,"size":4980266440,"categoryP":"video","categoryS":"hd___movies","magnet":"?xt=urn:btih:07d1cb2e35445fb652152c508149a7b03f92e732&amp;dn=In+the+Blood+%282014%29+Dual+Audio+BDRip+720p+%5BCHD%5D&amp;tr=udp%3A%2F%2Ftracker.openbittorrent.com%3A80&amp;tr=udp%3A%2F%2Fopen.demonii.com%3A1337&amp;tr=udp%3A%2F%2Ftracker.coppersurfer.tk%3A6969&amp;tr=udp%3A%2F%2Fexodus.desync.com%3A6969","seeders":6,"leechers":0,"uploader":"darkj6","files":-1,"time":1404409237,"description":" ______   _______  ______    ___   _      ___  --------|\n|      | |   _   ||    _ |  |   | | |    |   ||   |----|    \n|  _    ||  |_|  ||   | ||  |   |_| |    |   ||   |___ \n| | |   ||       ||   |_||_ |      _|    |   ||    _  |\n| |_|   ||       ||    __  ||     |_  ___|   ||   | | |\n|       ||   _   ||   |  | ||    _  ||       ||   |_| |\n|______| |__| |__||___|  |_||___| |_||_______||_______|\n &lt;a href=&quot;\nhttp://www.imdb.com/title/tt2101570/&quot; rel=&quot;nofollow&quot; target=&quot;_NEW&quot;&gt;\nhttp://www.imdb.com/title/tt2101570/&lt;/a&gt;\n\n Length : 1:47:40 \n\nSound: Duplicated [clear audio] \n\nFile Format : MKV \n\nQuality: BDRip 720p [CHD] \n\nVideo : 5150 kb / s, 1280x690 \n\nAudio : Russian: AC3, 384 kb / s (2 ch) \n\n English: AC3, 640 kb / s (6 ch) \n\nSubtitles : English\n\nFormat : Matroska\nFormat version : Version 2\nFile size : 4.64 GiB\nDuration : 1h 47mn\nOverall bit rate : 6 167 Kbps\nEncoded date : UTC 2014-07-03 02:26:40\nWriting application : mkvmerge v7.0.0 ('Where We Going') 64bit built on Jun 9 2014 15:16:27\nWriting library : libebml v1.3.0 + libmatroska v1.4.1\n\nVideo\nID : 1\nFormat : AVC\nFormat/Info : Advanced Video Codec\nFormat profile : &lt;a class=&quot;__cf_email__&quot; href=&quot;/cdn-cgi/l/email-protection&quot; data-cfemail=&quot;a9e1c0cec1e9e59d8798&quot;&gt;[email&amp;#160;protected]&lt;/a&gt;&lt;script cf-hash='f9e31' type=&quot;text/javascript&quot;&gt;\n/* &lt;![CDATA[ */!function(){try{var t=&quot;currentScript&quot;in document?document.currentScript:function(){for(var t=document.getElementsByTagName(&quot;script&quot;),e=t.length;e--;)if(t[e].getAttribute(&quot;cf-hash&quot;))return t[e]}();if(t&amp;&amp;t.previousSibling){var e,r,n,i,c=t.previousSibling,a=c.getAttribute(&quot;data-cfemail&quot;);if(a){for(e=&quot;&quot;,r=parseInt(a.substr(0,2),16),n=2;a.length-n;n+=2)i=parseInt(a.substr(n,2),16)^r,e+=String.fromCharCode(i);e=document.createTextNode(e),c.parentNode.replaceChild(e,c)}}}catch(u){}}();/* ]]&gt; */&lt;/script&gt;\nFormat settings, CABAC : Yes\nFormat settings, ReFrames : 8 frames\nCodec ID : V_MPEG4/ISO/AVC\nDuration : 1h 47mn\nBit rate : 5 150 Kbps\nWidth : 1 280 pixels\nHeight : 690 pixels\nDisplay aspect ratio : 1.85:1\nFrame rate : 23.976 fps\nColor space : YUV\nChroma subsampling : 4:2:0\nBit depth : 8 bits\nScan type : Progressive\nBits/(Pixel*Frame) : 0.243\nStream size : 3.78 GiB (81%)\nWriting library : x264 core 138 r2356 a1d3d17\nEncoding settings : cabac=1 / ref=8 / deblock=1:-3:-3 / analyse=0x3:0x113 / me=umh / subme=10 / psy=1 / psy_rd=1.00:0.05 / mixed_ref=1 / me_range=32 / chroma_me=1 / trellis=2 / 8x8dct=1 / cqm=0 / deadzone=21,11 / fast_pskip=0 / chroma_qp_offset=-2 / threads=18 / lookahead_threads=1 / sliced_threads=0 / nr=0 / decimate=1 / interlaced=0 / bluray_compat=0 / constrained_intra=0 / bframes=4 / b_pyramid=2 / b_adapt=2 / b_bias=0 / direct=3 / weightb=1 / open_gop=0 / weightp=2 / keyint=250 / keyint_min=23 / scenecut=40 / intra_refresh=0 / rc=2pass / mbtree=0 / bitrate=5150 / ratetol=1.0 / qcomp=0.70 / qpmin=0 / qpmax=69 / qpstep=4 / cplxblur=20.0 / qblur=0.5 / ip_ratio=1.40 / pb_ratio=1.30 / aq=2:1.00\nLanguage : English\nDefault : Yes\nForced : No\n\nAudio #1\nID : 2\nFormat : AC-3\nFormat/Info : Audio Coding 3\nMode extension : CM (complete main)\nFormat settings, Endianness : Big\nCodec ID : A_AC3\nDuration : 1h 47mn\nBit rate mode : Constant\nBit rate : 384 Kbps\nChannel(s) : 2 channels\nChannel positions : Front: L R\nSampling rate : 48.0 KHz\nBit depth : 16 bits\nCompression mode : Lossy\nStream size : 296 MiB (6%)\nLanguage : Russian\nDefault : Yes\nForced : No\n\nAudio #2\nID : 3\nFormat : AC-3\nFormat/Info : Audio Coding 3\nMode extension : CM (complete main)\nFormat settings, Endianness : Big\nCodec ID : A_AC3\nDuration : 1h 47mn\nBit rate mode : Constant\nBit rate : 640 Kbps\nChannel(s) : 6 channels\nChannel positions : Front: L C R, Side: L R, LFE\nSampling rate : 48.0 KHz\nBit depth : 16 bits\nCompression mode : Lossy\nStream size : 493 MiB (10%)\nLanguage : English\nDefault : No\nForced : No\n\nText\nID : 4\nFormat : UTF-8\nCodec ID : S_TEXT/UTF8\nCodec ID/Info : UTF-8 Plain Text\nDefault : Yes\nForced : No","torrent":{"xt":"urn:btih:07d1cb2e35445fb652152c508149a7b03f92e732","amp;dn":"In+the+Blood+%282014%29+Dual+Audio+BDRip+720p+%5BCHD%5D","amp;tr":["udp%3A%2F%2Ftracker.openbittorrent.com%3A80","udp%3A%2F%2Fopen.demonii.com%3A1337","udp%3A%2F%2Ftracker.coppersurfer.tk%3A6969","udp%3A%2F%2Fexodus.desync.com%3A6969"],"infoHash":"07d1cb2e35445fb652152c508149a7b03f92e732","infoHashBuffer":{"type":"Buffer","data":[7,209,203,46,53,68,95,182,82,21,44,80,129,73,167,176,63,146,231,50]},"announce":[],"urlList":[]}}